<svg xmlns="http://www.w3.org/2000/svg" xmlns:xlink="http://www.w3.org/1999/xlink" width="500" zoomAndPan="magnify" viewBox="0 0 375 374.999991" height="500" preserveAspectRatio="xMidYMid meet" version="1.0"><defs><clipPath id="4a55fddd43"><path d="M 208.019531 38.984375 L 337.425781 38.984375 L 337.425781 159.839844 L 208.019531 159.839844 Z M 208.019531 38.984375 " clip-rule="nonzero"/></clipPath><clipPath id="9f8752078e"><path d="M 39 38.25 L 336 38.25 L 336 289 L 39 289 Z M 39 38.25 " clip-rule="nonzero"/></clipPath><clipPath id="7bbdc9f5cc"><path d="M 40 122.417969 L 287.769531 122.417969 L 287.769531 337.5 L 40 337.5 Z M 40 122.417969 " clip-rule="nonzero"/></clipPath><clipPath id="028218072a"><path d="M 69 222.414062 L 198.203125 222.414062 L 198.203125 337.5 L 69 337.5 Z M 69 222.414062 " clip-rule="nonzero"/></clipPath></defs><g clip-path="url(#4a55fddd43)"><path fill="#b4e7f6" d="M 252.542969 86.910156 C 253.519531 86.949219 254.464844 87.011719 255.453125 87.046875 C 255.453125 87.046875 180.3125 66.972656 219.300781 54.582031 C 225.472656 53.152344 232.257812 51.167969 239.351562 48.390625 C 270.210938 36.3125 311.464844 28.601562 328.90625 72.539062 C 337.214844 93.46875 339.644531 124.828125 335.328125 159.464844 C 325.84375 133.902344 303.125 105.984375 252.542969 86.910156 " fill-opacity="1" fill-rule="nonzero"/></g><g clip-path="url(#9f8752078e)"><path fill="#81d7f7" d="M 162.378906 127.039062 C 119.953125 118.640625 74.824219 120.59375 40.351562 149.5 C 37.628906 118.851562 40.335938 91.441406 47.839844 72.539062 C 57.019531 49.410156 72.796875 40.597656 90.183594 39.195312 C 101.976562 38.246094 112.613281 40.597656 123.09375 45.75 C 134.148438 51.1875 144.886719 57.253906 155.785156 62.996094 C 175.527344 73.40625 207.316406 85.019531 252.542969 86.910156 C 303.125 105.984375 325.84375 133.902344 335.328125 159.464844 C 330.578125 197.546875 317.671875 239.589844 295.367188 276.125 C 292.742188 280.417969 290.195312 284.414062 287.722656 288.132812 C 284.816406 271.933594 277.0625 236.445312 260.550781 204.484375 C 249.085938 182.289062 213.191406 137.101562 162.378906 127.039062 " fill-opacity="1" fill-rule="nonzero"/></g><g clip-path="url(#7bbdc9f5cc)"><path fill="#60ccf5" d="M 162.378906 127.039062 C 213.191406 137.101562 249.085938 182.289062 260.550781 204.484375 C 277.0625 236.445312 284.816406 271.933594 287.722656 288.132812 C 250.007812 344.847656 229.628906 337.171875 229.628906 337.171875 C 229.628906 337.171875 217.214844 333.144531 208.832031 309.328125 C 203.671875 294.675781 201.683594 280.027344 198.105469 270.925781 C 198.105469 270.925781 178.980469 212.066406 115.589844 224.136719 C 90.96875 228.828125 77.078125 240.882812 69.257812 253.871094 C 52.660156 219.730469 43.300781 182.71875 40.351562 149.5 C 74.824219 120.59375 119.953125 118.640625 162.378906 127.039062 " fill-opacity="1" fill-rule="nonzero"/></g><g clip-path="url(#028218072a)"><path fill="#51ade5" d="M 115.589844 224.136719 C 178.980469 212.066406 198.105469 270.925781 198.105469 270.925781 C 195.871094 265.234375 193.015625 261.703125 188.371094 261.703125 C 176.296875 261.703125 176.296875 285.519531 167.914062 309.328125 C 159.527344 333.144531 147.117188 337.171875 147.117188 337.171875 C 147.117188 337.171875 123.972656 345.890625 81.378906 276.125 C 76.96875 268.898438 72.945312 261.453125 69.257812 253.871094 C 77.078125 240.882812 90.96875 228.828125 115.589844 224.136719 " fill-opacity="1" fill-rule="nonzero"/></g></svg>